<svg xmlns="http://www.w3.org/2000/svg" fill-rule="evenodd" stroke-linejoin="round" stroke-miterlimit="2" clip-rule="evenodd" viewBox="0 0 64 64" id="groupme">
  <path fill="none" d="M0 0h64v64H0z"></path>
  <path d="m26.382 50.001 4.724 9.447a.998.998 0 0 0 1.789 0l4.724-9.447H48c3.863 0 7-3.137 7-7v-32c0-3.863-3.137-7-7-7H16c-3.864 0-7 3.137-7 7v32c0 3.863 3.136 7 7 7h10.381Zm19.732-17.463c-1.441 2.764-4.14 4.994-7.506 6.276-2.003.762-4.243 1.187-6.607 1.187-2.365 0-4.606-.425-6.609-1.187-3.365-1.28-6.06-3.51-7.504-6.271a1 1 0 1 0-1.772.926c1.652 3.162 4.711 5.747 8.565 7.214 2.22.844 4.7 1.318 7.32 1.318 2.618 0 5.1-.474 7.319-1.318 3.855-1.467 6.916-4.055 8.568-7.219a1.002 1.002 0 0 0-.424-1.35 1.002 1.002 0 0 0-1.35.424ZM37 16.001v-4a1 1 0 0 0-2 0v4h-6v-4a1 1 0 0 0-2 0v4h-4a1 1 0 0 0 0 2h4v6h-4a1 1 0 0 0 0 2h4v4a1 1 0 0 0 2 0v-4h6v4a1 1 0 0 0 2 0v-4h4a1 1 0 0 0 0-2h-4v-6h4a1 1 0 0 0 0-2h-4Zm-2 8h-6v-6h6v6Z"></path>
</svg>
